<svg width="24" height="24" viewBox="0 0 24 24" fill="none" xmlns="http://www.w3.org/2000/svg">
<g transform="scale(1.5) translate(1.622 1.624)">
<path d="M9.6381 7.49711C6.46335 6.7802 5.97159 6.28844 5.25468 3.11369C5.22183 2.96859 5.09268 2.86526 4.94343 2.86526C4.79418 2.86526 4.66502 2.96859 4.63217 3.11369C3.91494 6.28844 3.4235 6.7802 0.24875 7.49711C0.103327 7.53027 0 7.65911 0 7.80836C0 7.95761 0.103327 8.08645 0.24875 8.11962C3.4235 8.83685 3.91494 9.32861 4.63217 12.503C4.66502 12.6481 4.79418 12.7515 4.94343 12.7515C5.09268 12.7515 5.22183 12.6481 5.25468 12.503C5.97191 9.32861 6.46335 8.83685 9.6381 8.11962C9.78352 8.08645 9.88653 7.95761 9.88653 7.80836C9.88653 7.65911 9.78321 7.53027 9.6381 7.49711Z" fill="url(#ai_reviewer_gradient_0)"/>
<path d="M12.5084 2.55383C10.8207 2.17273 10.5838 1.93578 10.2027 0.248431C10.1695 0.103008 10.0407 0 9.89141 0C9.74216 0 9.61332 0.103008 9.58015 0.248431C9.19905 1.93578 8.9621 2.17273 7.27475 2.55383C7.12933 2.587 7.02632 2.71584 7.02632 2.86509C7.02632 3.01434 7.12933 3.14318 7.27475 3.17634C8.9621 3.55744 9.19905 3.79439 9.58015 5.48207C9.61332 5.62717 9.74216 5.7305 9.89141 5.7305C10.0407 5.7305 10.1695 5.62717 10.2027 5.48207C10.5838 3.79439 10.8207 3.55744 12.5084 3.17634C12.6535 3.14318 12.7568 3.01434 12.7568 2.86509C12.7568 2.71584 12.6535 2.587 12.5084 2.55383Z" fill="url(#ai_reviewer_gradient_1)"/>
</g>
<defs>
<linearGradient id="ai_reviewer_gradient_0" x1="0" y1="12.7515" x2="15.2644" y2="4.83524" gradientUnits="userSpaceOnUse">
<stop stop-color="#715EFE"/>
<stop offset="1" stop-color="#FF5CDC"/>
</linearGradient>
<linearGradient id="ai_reviewer_gradient_1" x1="0" y1="12.7515" x2="15.2644" y2="4.83524" gradientUnits="userSpaceOnUse">
<stop stop-color="#715EFE"/>
<stop offset="1" stop-color="#FF5CDC"/>
</linearGradient>
</defs>
</svg>
