<svg width="16" height="16" viewBox="0 0 16 16" fill="none" xmlns="http://www.w3.org/2000/svg">
  <path d="M6.14178 2.21407C6.38823 1.96775 6.78781 1.96794 7.03437 2.21407L12.7268 7.90654C12.9734 8.15307 12.9733 8.55255 12.7268 8.79913L7.03437 14.4916C6.7878 14.738 6.38831 14.7381 6.14178 14.4916L0.44932 8.79913C0.203187 8.55256 0.202995 8.15298 0.44932 7.90654L6.14178 2.21407ZM1.77063 8.35283L6.58808 13.1703L11.4055 8.35283L6.58808 3.53538L1.77063 8.35283Z" fill="#3B3C45"/>
  <path d="M8.96479 1.5371C9.2112 1.29092 9.61083 1.29112 9.85736 1.5371L15.5497 7.22948C15.7962 7.47597 15.7961 7.87548 15.5497 8.12206L9.85736 13.8144C9.61079 14.0609 9.21131 14.061 8.96479 13.8144L8.33525 13.1907L9.22197 12.304L9.41108 12.4932L14.2285 7.67577L9.41108 2.85839L8.53022 3.73925L7.64643 2.85546L8.96479 1.5371Z" fill="#3B3C45"/>
  </svg>
  