<svg xmlns="http://www.w3.org/2000/svg" version="1.1" width="800px" height="800px" viewBox="0 0 100 100">
 <path d="m73.438 70.715c3.4961 2.3555 5.4688 5.1953 5.4688 8.1914 0 3.332-2.4453 6.4766-6.7227 8.9766-6.0625 3.543-15.844 5.8672-26.871 5.8672-11.031 0-20.809-2.3242-26.871-5.8672-4.2773-2.5-6.7227-5.6445-6.7227-8.9766 0-3.5156 2.7266-6.8203 7.4375-9.3828 0.37109-0.19922 0.83203-0.074219 1.0469 0.28906s0.10547 0.82812-0.25 1.0547c-2.8438 1.8281-4.3398 4.4297-4.3398 6.8672 0 2.4336 1.9805 4.4297 4.8203 6.2539 5.6094 3.6016 14.676 5.8555 24.879 5.8555s19.27-2.2539 24.879-5.8555c2.8398-1.8242 4.8203-3.8203 4.8203-6.2539s-1.9805-4.4297-4.8203-6.2539c-0.011718-0.007813-0.019531-0.011719-0.03125-0.019531-1.1406 0.10156-2.2656 0.03125-3.3398-0.22266-1.0977 1.5586-2.3438 3.0039-3.75 4.3008 0.39453 0.56641 0.60156 1.1719 0.60156 1.8047 0 0.67969-0.23828 1.3242-0.69141 1.9258-0.57422 0.76172-1.5156 1.4688-2.707 2.1133-3.3711 1.8203-8.8203 2.9922-14.961 2.9922-1.082 0-2.1445-0.035156-3.1797-0.10547-0.42969-0.03125-0.75391-0.40234-0.72656-0.83203 0.03125-0.42969 0.40234-0.75781 0.83594-0.72656 0.99609 0.066406 2.0234 0.10156 3.0703 0.10156 5.832 0 11.016-1.0742 14.219-2.8047 0.8125-0.4375 1.4961-0.89844 1.9688-1.4023 0.37109-0.39453 0.60938-0.80469 0.60938-1.2617 0-0.27344-0.085937-0.52734-0.23047-0.77344-4.1523 3.3555-9.5664 5.4609-16.566 5.4609-1.3242 0-2.5938-0.078125-3.8047-0.22266-0.79687 0.77734-1.75 1.5078-2.8359 2.1328-2.5273 1.4609-5.1797 2.0273-7.1914 1.7461-1.5195-0.21094-2.6953-0.89844-3.3242-1.9883-0.11328-0.19922-0.20703-0.40625-0.28125-0.62109-1.9531-1.0195-3.8359-3.5664-4.7188-6.8672-0.75391-2.8164-0.61719-5.5273 0.17578-7.3984 0.59766-1.4102 1.5664-2.3711 2.7812-2.6953 1.2148-0.32422 2.5352 0.019531 3.7578 0.94531 1.6211 1.2266 3.0977 3.5 3.8516 6.3164 0.0625 0.24219 0.12109 0.48047 0.17188 0.71484 2.3125-1.1758 4.668-1.6211 6.5-1.3672 1.5195 0.21094 2.6953 0.89844 3.3242 1.9883s0.63672 2.4531 0.058594 3.8711c-0.23828 0.58984-0.57812 1.1875-1.0117 1.7812 0.82422 0.066406 1.6719 0.10156 2.5469 0.10156 6.8906 0 12.148-2.1562 16.125-5.5625 0.027344-0.027344 0.054688-0.050781 0.082031-0.070312 7.5156-6.5039 10.402-17.504 11.008-26.797-0.88672 0.98438-2.1094 1.9102-3.6367 2.7461-4.7344 2.5859-12.406 4.375-21.211 4.6484-0.42969 0.011718-0.79297-0.32812-0.80469-0.75781-0.011719-0.42969 0.32422-0.79297 0.75781-0.80469 8.5078-0.26562 15.934-1.957 20.512-4.457 2.7852-1.5234 4.5117-3.2891 4.5117-5.2734 0-0.98438-0.44922-1.9258-1.2383-2.8125-0.875-0.98828-2.1602-1.8984-3.7656-2.7188-5.0391-2.5781-13.172-4.2344-22.34-4.2344s-17.301 1.6562-22.34 4.2344c-1.6055 0.82031-2.8906 1.7305-3.7656 2.7188-0.78906 0.88672-1.2383 1.8281-1.2383 2.8125 0 1.0625 0.51953 2.0703 1.4258 3.0156 1.5273 1.5977 4.1094 2.9922 7.418 4.1016 0.40625 0.13672 0.62891 0.58203 0.49219 0.99219-0.13672 0.40625-0.58203 0.625-0.99219 0.48828-3.5977-1.207-6.3828-2.7617-8.0469-4.5-0.054687-0.058593-0.11328-0.11719-0.16797-0.17969 0.40625 6.1094 1.8008 12.945 4.8398 18.766 0.19922 0.38281 0.050781 0.85547-0.33203 1.0547-0.38281 0.19922-0.85547 0.050782-1.0547-0.32812-3.8281-7.3398-5.1445-16.219-5.1445-23.41 0-2.5547 2.1094-5.0078 5.8555-6.9219 5.1992-2.6602 13.59-4.4062 23.051-4.4062s17.852 1.7461 23.051 4.4062c2.9805 1.5234 4.9258 3.3867 5.5977 5.375 1.9531-0.097656 3.8438 0.32031 5.5234 1.293 5.5117 3.1836 7.0234 11.723 2.7422 19.141-2.2031 3.8125-5.4297 6.4531-8.7891 7.6875zm-5.6836-0.88281c4.5508 0.76172 9.9766-2.1406 13.117-7.5859 3.8008-6.5781 2.7188-14.184-2.168-17.008-1.3672-0.78906-2.8984-1.1406-4.4844-1.0938 0 0.62891-0.011719 1.2695-0.03125 1.918 1.2578-0.054688 2.4727 0.20703 3.5586 0.83594 1.5859 0.91406 2.6367 2.4648 3.1523 4.3281 0.8125 2.957 0.27734 6.6719-1.6836 10.062-1.8828 3.2617-4.6758 5.5273-7.5273 6.3906-0.96875 0.29297-1.9453 0.42187-2.8906 0.36328-0.32812 0.60547-0.67578 1.207-1.043 1.7891zm6.3633-22.203c-0.35547 6.082-1.6641 12.902-4.5234 18.855 0.54297-0.03125 1.0938-0.13281 1.6445-0.30078 2.5156-0.76172 4.9609-2.7969 6.6211-5.6758 1.7305-2.9922 2.2461-6.2617 1.5312-8.8672-0.39844-1.4492-1.1914-2.6758-2.4258-3.3906-0.86719-0.5-1.8398-0.68359-2.8477-0.62109zm-44.879 34.344c0.95312-0.11328 2.7109-0.44141 3.8789-1.3398 0.81641-0.63281 1.1562-1.2031 1.5039-1.7695 0.4375-0.69922 0.88281-1.3906 1.9258-2.1523 1.2461-0.90625 3.4258-1.6562 4.8516-2.082-0.35156-0.17578-0.76563-0.29297-1.2188-0.35547-1.7383-0.24219-4.0156 0.29297-6.1953 1.5508-0.089844 0.050781-0.17578 0.10156-0.26172 0.15625-1.8555 1.125-3.2617 2.5742-3.9805 3.9961-0.074219 0.14453-0.14063 0.29297-0.19922 0.4375-0.13281 0.32813-0.22656 0.64844-0.27344 0.96484-0.03125 0.20312-0.042969 0.40234-0.03125 0.59375zm3.2266-7.0469c-0.066406-0.37891-0.15234-0.75781-0.25391-1.1406-0.64844-2.4336-1.8828-4.4219-3.2812-5.4766-0.43359-0.32422-0.875-0.5625-1.3203-0.67578-0.011719 1.3438 0.050781 3.1992 0.45703 4.4141 0.32422 0.96875 0.74609 1.4648 1.1758 1.9609 0.50781 0.59375 1.0195 1.1875 1.4492 2.2891 0.53125-0.48438 1.125-0.94531 1.7734-1.3711zm-4.1133 4.3438c0.28125-0.55469 0.65234-1.1211 1.1016-1.6719-0.042969-0.20703-0.097656-0.41016-0.16797-0.60156-0.35547-0.97266-0.80078-1.4688-1.2305-1.9688-0.53906-0.62891-1.0625-1.2617-1.4727-2.4883-0.42969-1.293-0.53125-3.2539-0.53125-4.7188-0.55078 0.30859-0.97266 0.88281-1.2773 1.6016-0.68359 1.6133-0.75781 3.9531-0.10547 6.3828 0.61719 2.3164 1.7578 4.2344 3.0625 5.3125 0.066406-0.42188 0.1875-0.85156 0.36719-1.2891 0.074219-0.1875 0.15625-0.37109 0.25391-0.55859zm47.57-4.2305c0.42188 0.85938 0.65234 1.7578 0.65234 2.6953 0 2.8906-2.1641 5.4023-5.5391 7.5703-5.8008 3.7227-15.172 6.1016-25.723 6.1016s-19.922-2.3789-25.723-6.1016c-3.375-2.168-5.5391-4.6797-5.5391-7.5703 0-0.74219 0.11328-1.5 0.33594-2.2539-0.71875 1.0859-1.1055 2.2305-1.1055 3.4258 0 2.875 2.2578 5.4727 5.9492 7.6289 5.8828 3.4375 15.379 5.6523 26.082 5.6523s20.199-2.2148 26.082-5.6523c3.6914-2.1562 5.9492-4.7539 5.9492-7.6289 0-1.3555-0.50391-2.6523-1.4219-3.8672zm-45.98 8.3984c0.4375 0.37891 1.0508 0.60156 1.7539 0.70312 1.7383 0.24219 4.0156-0.29297 6.1953-1.5508 2.1797-1.2578 3.7812-2.9648 4.4414-4.5898 0.30078-0.74219 0.40234-1.4648 0.21484-2.082-1.1719 0.3125-3.7305 1.0781-5.0781 2.0586-0.83203 0.60156-1.1758 1.1562-1.5195 1.7109-0.42969 0.69922-0.86328 1.3984-1.8789 2.1797-1.2109 0.9375-2.9492 1.3711-4.1289 1.5703zm15.371-46.27c8.6406 0 16.32 1.4961 21.066 3.9258 0.625 0.32031 1.5508 0.75391 2.1914 1.293 0.59766 0.50391 0.96094 1.1055 0.96094 1.7539s-0.36328 1.25-0.96094 1.75c-0.64062 0.54297-1.5664 0.97656-2.1914 1.2969-4.7461 2.4258-12.426 3.9258-21.066 3.9258s-16.32-1.5-21.066-3.9258c-0.625-0.32031-1.5508-0.75391-2.1914-1.2969-0.59766-0.5-0.96094-1.1016-0.96094-1.75s0.36328-1.25 0.96094-1.7539c0.64062-0.53906 1.5664-0.97266 2.1914-1.293 4.7461-2.4297 12.426-3.9258 21.066-3.9258zm0 1.5625c-8.3438 0-15.77 1.4102-20.355 3.7539-0.45703 0.23438-1.1055 0.53125-1.6367 0.90234-0.21094 0.14453-0.40234 0.30078-0.53906 0.47656-0.066406 0.085938-0.125 0.17578-0.125 0.27734s0.058594 0.19141 0.125 0.27734c0.13672 0.17578 0.32812 0.33203 0.53906 0.47656 0.53125 0.37109 1.1797 0.66406 1.6367 0.89844 4.5859 2.3477 12.012 3.7578 20.355 3.7578s15.77-1.4102 20.355-3.7578c0.45703-0.23438 1.1055-0.52734 1.6367-0.89844 0.21094-0.14453 0.40234-0.30078 0.53516-0.47656 0.070312-0.085938 0.12891-0.17578 0.12891-0.27734s-0.058594-0.19141-0.12891-0.27734c-0.13281-0.17578-0.32422-0.33203-0.53516-0.47656-0.53125-0.37109-1.1797-0.66797-1.6367-0.90234-4.5859-2.3438-12.012-3.7539-20.355-3.7539zm1.3633-31.359c-0.1875-0.38672-0.027343-0.85547 0.36328-1.043 0.38672-0.1875 0.85547-0.027344 1.043 0.36328 1.1445 2.3672 1.5859 4.2031 1.6094 5.7617 0.042969 2.3477-0.85547 4.082-1.8477 6.0703-1.9375 3.8711-0.42578 5.0156 0.93359 8.3867 0.16016 0.40234-0.035156 0.85547-0.43359 1.0156-0.40234 0.16406-0.85547-0.03125-1.0195-0.43359-1.5586-3.875-3.1055-5.2148-0.87891-9.668 0.87891-1.7539 1.7188-3.2734 1.6836-5.3438-0.023437-1.3867-0.4375-3.0078-1.4531-5.1094zm8.2305 5.043c-0.1875-0.38672-0.027344-0.85547 0.36328-1.043 0.38672-0.1875 0.85547-0.027344 1.043 0.36328 0.875 1.8086 1.207 3.2109 1.2266 4.4023 0.03125 1.793-0.64844 3.125-1.4062 4.6445-0.94141 1.875-0.75781 2.832-0.22656 4.0352 0.26562 0.60938 0.60156 1.2695 0.92969 2.0938 0.16406 0.40234-0.03125 0.85547-0.42969 1.0156-0.40234 0.16406-0.85547-0.03125-1.0195-0.43359-1.1953-2.9688-2.3594-3.9961-0.65234-7.4102 0.64453-1.2891 1.2695-2.3984 1.2422-3.918-0.015624-1.0156-0.32422-2.207-1.0703-3.75zm-16.391 0c-0.1875-0.38672-0.023437-0.85547 0.36328-1.043 0.38672-0.1875 0.85547-0.027344 1.043 0.36328 0.875 1.8086 1.207 3.2109 1.2266 4.4023 0.03125 1.793-0.64844 3.125-1.4062 4.6445-0.9375 1.875-0.75391 2.832-0.22656 4.0352 0.26562 0.60938 0.60156 1.2695 0.93359 2.0938 0.16016 0.40234-0.035157 0.85547-0.43359 1.0156-0.39844 0.16406-0.85547-0.03125-1.0156-0.43359-1.1953-2.9688-2.3633-3.9961-0.65625-7.4102 0.64453-1.2891 1.2695-2.3984 1.2461-3.918-0.019532-1.0156-0.32812-2.207-1.0742-3.75z" fill-rule="evenodd"/>
</svg>