<svg className="rocket-icon" width="48" height="48" viewBox="0 0 48 48" fill="none" xmlns="http://www.w3.org/2000/svg" style="fill: transparent !important;">
  <path d="M8 0.5H40C44.1421 0.500001 47.5 3.85786 47.5 8V40C47.5 44.1421 44.1421 47.5 40 47.5H8C3.85786 47.5 0.5 44.1421 0.5 40V8L0.509766 7.61426C0.704064 3.77915 3.77915 0.704063 7.61426 0.509766L8 0.5Z" fill="white"/>
  <path d="M8 0.5H40C44.1421 0.500001 47.5 3.85786 47.5 8V40C47.5 44.1421 44.1421 47.5 40 47.5H8C3.85786 47.5 0.5 44.1421 0.5 40V8L0.509766 7.61426C0.704064 3.77915 3.77915 0.704063 7.61426 0.509766L8 0.5Z" stroke="#EDEDF2"/>
  <path d="M23.4645 23.471L17.4664 29.469L18.5271 30.5297L24.5251 24.5317L23.4645 23.471Z" fill="#1A1C21"/>
  <path d="M24.7504 34.5C24.6554 34.5003 24.5612 34.4825 24.4729 34.4475C24.35 34.3986 24.2423 34.318 24.1606 34.2139C24.0789 34.1098 24.0262 33.986 24.0079 33.855L23.2579 28.605L24.7579 28.395L25.3204 32.3475L27.7504 30.39V24.75C27.7498 24.6513 27.7687 24.5535 27.806 24.4621C27.8433 24.3707 27.8983 24.2876 27.9679 24.2175L31.0204 21.165C31.6493 20.5403 32.1482 19.7971 32.488 18.9783C32.8279 18.1596 33.002 17.2815 33.0004 16.395V15H31.6054C30.7189 14.9984 29.8408 15.1725 29.0221 15.5124C28.2033 15.8522 27.4601 16.3511 26.8354 16.98L23.7829 20.0325C23.7128 20.1021 23.6297 20.1571 23.5383 20.1944C23.4469 20.2317 23.3491 20.2506 23.2504 20.25H17.6104L15.6529 22.695L19.6054 23.2575L19.3954 24.7575L14.1454 24.0075C14.0144 23.9892 13.8906 23.9365 13.7865 23.8548C13.6824 23.7732 13.6018 23.6654 13.5529 23.5425C13.5033 23.4188 13.4875 23.2841 13.5073 23.1523C13.5271 23.0205 13.5816 22.8963 13.6654 22.7925L16.6654 19.0425C16.7344 18.9528 16.823 18.8798 16.9243 18.8292C17.0256 18.7785 17.1371 18.7515 17.2504 18.75H22.9429L25.7704 15.915C26.5347 15.1464 27.4441 14.5371 28.4457 14.1225C29.4474 13.708 30.5213 13.4964 31.6054 13.5H33.0004C33.3982 13.5 33.7797 13.6581 34.061 13.9394C34.3423 14.2207 34.5004 14.6022 34.5004 15V16.395C34.504 17.4791 34.2924 18.553 33.8779 19.5547C33.4633 20.5563 32.854 21.4657 32.0854 22.23L29.2504 25.0575V30.75C29.2498 30.8627 29.2239 30.9738 29.1746 31.0751C29.1253 31.1763 29.0537 31.2652 28.9654 31.335L25.2154 34.335C25.0834 34.4409 24.9195 34.4991 24.7504 34.5Z" fill="#1A1C21"/>
</svg>
