<svg width="48" height="48" viewBox="0 0 48 48" fill="none" xmlns="http://www.w3.org/2000/svg">
<path d="M27 45H30V42C30.0004 41.6023 30.1585 41.221 30.4398 40.9398C30.721 40.6585 31.1023 40.5004 31.5 40.5H40.5C40.8977 40.5004 41.2791 40.6585 41.5603 40.9398C41.8415 41.221 41.9997 41.6023 42 42V45H45V42C44.9987 40.8069 44.5242 39.6631 43.6806 38.8195C42.8369 37.9759 41.6931 37.5013 40.5 37.5H31.5C30.307 37.5013 29.1631 37.9759 28.3195 38.8195C27.4759 39.6631 27.0013 40.8069 27 42V45Z" fill="#1F7CFF"/>
<path d="M36 36C34.8133 36 33.6533 35.6481 32.6666 34.9888C31.6799 34.3295 30.9109 33.3925 30.4567 32.2961C30.0026 31.1998 29.8838 29.9934 30.1153 28.8295C30.3468 27.6656 30.9183 26.5965 31.7574 25.7574C32.5965 24.9183 33.6656 24.3468 34.8295 24.1153C35.9934 23.8838 37.1998 24.0026 38.2961 24.4567C39.3925 24.9109 40.3295 25.6799 40.9888 26.6666C41.6481 27.6533 42 28.8133 42 30C41.9984 31.5908 41.3657 33.116 40.2408 34.2408C39.116 35.3657 37.5908 35.9983 36 36ZM36 27C35.4067 27 34.8267 27.176 34.3333 27.5056C33.84 27.8353 33.4554 28.3038 33.2284 28.852C33.0013 29.4001 32.9419 30.0033 33.0577 30.5853C33.1734 31.1672 33.4591 31.7018 33.8787 32.1213C34.2983 32.5409 34.8328 32.8266 35.4148 32.9424C35.9967 33.0581 36.5999 32.9987 37.1481 32.7717C37.6963 32.5446 38.1648 32.1601 38.4944 31.6667C38.8241 31.1734 39 30.5934 39 30C38.9991 29.2046 38.6827 28.4421 38.1203 27.8797C37.5579 27.3173 36.7954 27.0009 36 27Z" fill="#1F7CFF"/>
<path d="M38.0127 15.0903L5.01274 3.09028C4.74446 2.99263 4.45387 2.97358 4.17513 3.03535C3.89639 3.09713 3.64107 3.23717 3.43916 3.43903C3.23725 3.64089 3.09715 3.89618 3.03531 4.17491C2.97346 4.45364 2.99245 4.74423 3.09004 5.01253L15.09 38.0125C15.194 38.2981 15.3821 38.5453 15.6295 38.7217C15.877 38.8981 16.1721 38.9952 16.4759 39.0003H16.5C16.7999 39.0003 17.093 38.9105 17.3413 38.7423C17.5896 38.5741 17.7818 38.3354 17.8931 38.0569L23.655 23.6541L38.0574 17.8929C38.3398 17.7802 38.5812 17.5844 38.7498 17.3314C38.9183 17.0784 39.006 16.7802 39.0013 16.4762C38.9965 16.1723 38.8995 15.8769 38.7231 15.6293C38.5467 15.3818 38.2985 15.1941 38.0127 15.0903ZM21.3458 21.3453L16.5668 33.2938L7.00789 7.00753L33.2945 16.5664L21.3458 21.3453Z" fill="#1F7CFF"/>
</svg>
